<svg width="180" height="82" viewBox="0 0 180 82" fill="none" xmlns="http://www.w3.org/2000/svg">
<path d="M76.44 32V3.2H83.388C86.076 3.2 88.014 3.746 89.202 4.838C90.402 5.918 91.044 7.712 91.128 10.22C91.164 11.228 91.182 12.164 91.182 13.028C91.182 13.892 91.164 14.828 91.128 15.836C91.044 18.332 90.402 20.126 89.202 21.218C88.014 22.31 86.076 22.856 83.388 22.856H81.84V32H76.44ZM81.84 18.104H83.388C84.144 18.104 84.714 17.93 85.098 17.582C85.482 17.234 85.692 16.748 85.728 16.124C85.764 15.536 85.788 14.876 85.8 14.144C85.812 13.4 85.812 12.662 85.8 11.93C85.788 11.186 85.764 10.52 85.728 9.932C85.692 9.296 85.482 8.81 85.098 8.474C84.714 8.126 84.144 7.952 83.388 7.952H81.84V18.104ZM94.1053 32V3.2H101.053C103.741 3.2 105.679 3.746 106.867 4.838C108.067 5.918 108.709 7.712 108.793 10.22C108.817 10.892 108.829 11.48 108.829 11.984C108.841 12.488 108.841 12.992 108.829 13.496C108.829 14 108.817 14.588 108.793 15.26C108.745 16.82 108.481 18.098 108.001 19.094C107.533 20.09 106.801 20.852 105.805 21.38L109.189 32H103.465L100.729 22.28H99.5053V32H94.1053ZM99.5053 17.528H101.053C101.809 17.528 102.379 17.354 102.763 17.006C103.147 16.658 103.357 16.172 103.393 15.548C103.429 14.96 103.453 14.348 103.465 13.712C103.477 13.064 103.477 12.422 103.465 11.786C103.453 11.138 103.429 10.52 103.393 9.932C103.357 9.296 103.147 8.81 102.763 8.474C102.379 8.126 101.809 7.952 101.053 7.952H99.5053V17.528ZM111.982 32V3.2H117.382V32H111.982ZM128.468 32.36C125.756 32.36 123.824 31.802 122.672 30.686C121.532 29.57 120.932 27.716 120.872 25.124C120.86 24.128 120.848 22.976 120.836 21.668C120.824 20.36 120.818 19.004 120.818 17.6C120.818 16.184 120.824 14.822 120.836 13.514C120.848 12.194 120.86 11.024 120.872 10.004C120.908 7.808 121.52 6.068 122.708 4.784C123.908 3.488 125.828 2.84 128.468 2.84C131.06 2.84 132.938 3.398 134.102 4.514C135.266 5.618 135.884 7.46 135.956 10.04C135.968 10.436 135.974 10.868 135.974 11.336C135.974 11.792 135.968 12.254 135.956 12.722C135.944 13.178 135.932 13.604 135.92 14H130.52C130.532 13.556 130.544 13.034 130.556 12.434C130.568 11.822 130.574 11.216 130.574 10.616C130.574 10.004 130.568 9.476 130.556 9.032C130.544 8.456 130.352 8.012 129.98 7.7C129.62 7.388 129.116 7.232 128.468 7.232C127.784 7.232 127.25 7.388 126.866 7.7C126.494 8.012 126.296 8.456 126.272 9.032C126.224 10.292 126.188 11.654 126.164 13.118C126.152 14.582 126.146 16.076 126.146 17.6C126.146 19.124 126.152 20.618 126.164 22.082C126.188 23.534 126.224 24.884 126.272 26.132C126.296 26.72 126.494 27.176 126.866 27.5C127.25 27.812 127.784 27.968 128.468 27.968C129.176 27.968 129.722 27.812 130.106 27.5C130.49 27.176 130.688 26.72 130.7 26.132C130.712 25.7 130.718 25.184 130.718 24.584C130.73 23.972 130.73 23.366 130.718 22.766C130.718 22.154 130.712 21.632 130.7 21.2H136.1C136.124 21.776 136.136 22.43 136.136 23.162C136.136 23.894 136.124 24.548 136.1 25.124C136.028 27.716 135.398 29.57 134.21 30.686C133.034 31.802 131.12 32.36 128.468 32.36ZM139.367 32V3.2H151.823V7.952H144.767V14.972H151.463V19.724H144.767V27.248H151.823V32H139.367ZM83.964 69.36C82.152 69.36 80.7 69.12 79.608 68.64C78.516 68.148 77.718 67.374 77.214 66.318C76.71 65.25 76.428 63.852 76.368 62.124C76.332 61.116 76.302 59.97 76.278 58.686C76.266 57.39 76.26 56.058 76.26 54.69C76.26 53.322 76.266 52.002 76.278 50.73C76.302 49.458 76.332 48.336 76.368 47.364C76.44 45.54 76.734 44.076 77.25 42.972C77.778 41.868 78.582 41.07 79.662 40.578C80.754 40.086 82.188 39.84 83.964 39.84C86.484 39.84 88.32 40.398 89.472 41.514C90.636 42.618 91.296 44.46 91.452 47.04C91.488 47.592 91.506 48.252 91.506 49.02C91.506 49.776 91.488 50.436 91.452 51H86.052C86.088 50.328 86.106 49.5 86.106 48.516C86.106 47.52 86.088 46.692 86.052 46.032C86.016 45.456 85.818 45.012 85.458 44.7C85.098 44.388 84.6 44.232 83.964 44.232C83.268 44.232 82.734 44.388 82.362 44.7C82.002 45.012 81.804 45.456 81.768 46.032C81.696 47.292 81.642 48.654 81.606 50.118C81.57 51.57 81.552 53.058 81.552 54.582C81.552 56.106 81.57 57.6 81.606 59.064C81.642 60.516 81.696 61.872 81.768 63.132C81.804 63.72 82.002 64.176 82.362 64.5C82.734 64.812 83.268 64.968 83.964 64.968C84.648 64.968 85.194 64.812 85.602 64.5C86.022 64.176 86.256 63.72 86.304 63.132C86.328 62.856 86.34 62.496 86.34 62.052C86.352 61.596 86.352 61.146 86.34 60.702C86.34 60.246 86.328 59.88 86.304 59.604H84.324V54.924H91.56C91.62 56.016 91.644 57.216 91.632 58.524C91.62 59.82 91.584 61.02 91.524 62.124C91.404 64.716 90.756 66.57 89.58 67.686C88.416 68.802 86.544 69.36 83.964 69.36ZM102.258 69.36C99.5579 69.36 97.6259 68.802 96.4619 67.686C95.2979 66.57 94.6979 64.716 94.6619 62.124C94.6139 58.5 94.5899 54.846 94.5899 51.162C94.5899 47.466 94.6139 43.812 94.6619 40.2H100.062C100.014 42.612 99.9839 45.126 99.9719 47.742C99.9719 50.358 99.9779 52.974 99.9899 55.59C100.014 58.206 100.038 60.72 100.062 63.132C100.062 63.72 100.254 64.176 100.638 64.5C101.022 64.812 101.562 64.968 102.258 64.968C102.966 64.968 103.5 64.812 103.86 64.5C104.232 64.176 104.418 63.72 104.418 63.132C104.442 60.72 104.46 58.206 104.472 55.59C104.496 52.974 104.502 50.358 104.49 47.742C104.49 45.126 104.466 42.612 104.418 40.2H109.818C109.878 43.812 109.908 47.466 109.908 51.162C109.908 54.846 109.878 58.5 109.818 62.124C109.782 64.716 109.182 66.57 108.018 67.686C106.866 68.802 104.946 69.36 102.258 69.36ZM113.177 69V40.2H125.633V44.952H118.577V51.972H125.273V56.724H118.577V64.248H125.633V69H113.177ZM135.702 69.36C133.062 69.36 131.178 68.802 130.05 67.686C128.934 66.57 128.322 64.716 128.214 62.124C128.202 61.74 128.196 61.32 128.196 60.864C128.196 60.396 128.208 59.934 128.232 59.478C128.256 59.01 128.298 58.584 128.358 58.2H133.434C133.386 59.076 133.356 59.94 133.344 60.792C133.332 61.644 133.362 62.424 133.434 63.132C133.494 63.72 133.704 64.176 134.064 64.5C134.436 64.812 134.982 64.968 135.702 64.968C136.41 64.968 136.926 64.812 137.25 64.5C137.586 64.176 137.79 63.72 137.862 63.132C137.91 62.724 137.94 62.322 137.952 61.926C137.976 61.518 137.976 61.116 137.952 60.72C137.94 60.312 137.91 59.904 137.862 59.496C137.814 58.992 137.658 58.536 137.394 58.128C137.13 57.72 136.71 57.444 136.134 57.3L133.182 56.544C131.934 56.22 130.944 55.758 130.212 55.158C129.48 54.546 128.946 53.79 128.61 52.89C128.286 51.99 128.106 50.94 128.07 49.74C128.058 49.212 128.052 48.744 128.052 48.336C128.052 47.916 128.058 47.484 128.07 47.04C128.142 45.324 128.43 43.938 128.934 42.882C129.45 41.826 130.254 41.058 131.346 40.578C132.438 40.086 133.89 39.84 135.702 39.84C138.258 39.84 140.112 40.398 141.264 41.514C142.416 42.618 143.046 44.46 143.154 47.04C143.178 47.556 143.178 48.186 143.154 48.93C143.142 49.674 143.118 50.364 143.082 51H137.898C137.934 50.172 137.958 49.344 137.97 48.516C137.982 47.688 137.97 46.86 137.934 46.032C137.922 45.456 137.712 45.012 137.304 44.7C136.908 44.388 136.374 44.232 135.702 44.232C134.982 44.232 134.448 44.388 134.1 44.7C133.752 45.012 133.542 45.456 133.47 46.032C133.398 46.644 133.362 47.262 133.362 47.886C133.362 48.51 133.398 49.128 133.47 49.74C133.53 50.22 133.698 50.658 133.974 51.054C134.25 51.45 134.694 51.72 135.306 51.864L137.862 52.476C139.206 52.8 140.262 53.28 141.03 53.916C141.81 54.54 142.368 55.32 142.704 56.256C143.052 57.18 143.25 58.26 143.298 59.496C143.31 59.772 143.316 60.06 143.316 60.36C143.316 60.66 143.31 60.96 143.298 61.26C143.286 61.56 143.274 61.848 143.262 62.124C143.154 64.716 142.53 66.57 141.39 67.686C140.262 68.802 138.366 69.36 135.702 69.36ZM153.473 69.36C150.833 69.36 148.949 68.802 147.821 67.686C146.705 66.57 146.093 64.716 145.985 62.124C145.973 61.74 145.967 61.32 145.967 60.864C145.967 60.396 145.979 59.934 146.003 59.478C146.027 59.01 146.069 58.584 146.129 58.2H151.205C151.157 59.076 151.127 59.94 151.115 60.792C151.103 61.644 151.133 62.424 151.205 63.132C151.265 63.72 151.475 64.176 151.835 64.5C152.207 64.812 152.753 64.968 153.473 64.968C154.181 64.968 154.697 64.812 155.021 64.5C155.357 64.176 155.561 63.72 155.633 63.132C155.681 62.724 155.711 62.322 155.723 61.926C155.747 61.518 155.747 61.116 155.723 60.72C155.711 60.312 155.681 59.904 155.633 59.496C155.585 58.992 155.429 58.536 155.165 58.128C154.901 57.72 154.481 57.444 153.905 57.3L150.953 56.544C149.705 56.22 148.715 55.758 147.983 55.158C147.251 54.546 146.717 53.79 146.381 52.89C146.057 51.99 145.877 50.94 145.841 49.74C145.829 49.212 145.823 48.744 145.823 48.336C145.823 47.916 145.829 47.484 145.841 47.04C145.913 45.324 146.201 43.938 146.705 42.882C147.221 41.826 148.025 41.058 149.117 40.578C150.209 40.086 151.661 39.84 153.473 39.84C156.029 39.84 157.883 40.398 159.035 41.514C160.187 42.618 160.817 44.46 160.925 47.04C160.949 47.556 160.949 48.186 160.925 48.93C160.913 49.674 160.889 50.364 160.853 51H155.669C155.705 50.172 155.729 49.344 155.741 48.516C155.753 47.688 155.741 46.86 155.705 46.032C155.693 45.456 155.483 45.012 155.075 44.7C154.679 44.388 154.145 44.232 153.473 44.232C152.753 44.232 152.219 44.388 151.871 44.7C151.523 45.012 151.313 45.456 151.241 46.032C151.169 46.644 151.133 47.262 151.133 47.886C151.133 48.51 151.169 49.128 151.241 49.74C151.301 50.22 151.469 50.658 151.745 51.054C152.021 51.45 152.465 51.72 153.077 51.864L155.633 52.476C156.977 52.8 158.033 53.28 158.801 53.916C159.581 54.54 160.139 55.32 160.475 56.256C160.823 57.18 161.021 58.26 161.069 59.496C161.081 59.772 161.087 60.06 161.087 60.36C161.087 60.66 161.081 60.96 161.069 61.26C161.057 61.56 161.045 61.848 161.033 62.124C160.925 64.716 160.301 66.57 159.161 67.686C158.033 68.802 156.137 69.36 153.473 69.36ZM164.134 69V40.2H171.082C173.77 40.2 175.708 40.746 176.896 41.838C178.096 42.918 178.738 44.712 178.822 47.22C178.846 47.892 178.858 48.48 178.858 48.984C178.87 49.488 178.87 49.992 178.858 50.496C178.858 51 178.846 51.588 178.822 52.26C178.774 53.82 178.51 55.098 178.03 56.094C177.562 57.09 176.83 57.852 175.834 58.38L179.218 69H173.494L170.758 59.28H169.534V69H164.134ZM169.534 54.528H171.082C171.838 54.528 172.408 54.354 172.792 54.006C173.176 53.658 173.386 53.172 173.422 52.548C173.458 51.96 173.482 51.348 173.494 50.712C173.506 50.064 173.506 49.422 173.494 48.786C173.482 48.138 173.458 47.52 173.422 46.932C173.386 46.296 173.176 45.81 172.792 45.474C172.408 45.126 171.838 44.952 171.082 44.952H169.534V54.528Z" fill="url(#paint0_linear_58_20)"/>
<path d="M12.864 24.9059C12.864 19.6884 17.1092 15.4588 22.346 15.4588H61.136C61.136 20.6763 56.8908 24.9059 51.654 24.9059H12.864Z" fill="url(#paint1_linear_58_20)"/>
<path d="M12.864 31.7765H51.654C56.8908 31.7765 61.136 36.0061 61.136 41.2235H22.346C17.1092 41.2235 12.864 36.9939 12.864 31.7765Z" fill="url(#paint2_linear_58_20)"/>
<path d="M12.864 57.5412C12.864 52.3237 17.1092 48.0941 22.346 48.0941H61.136C61.136 53.3116 56.8908 57.5412 51.654 57.5412H12.864Z" fill="url(#paint3_linear_58_20)"/>
<path d="M52.516 56.9686V31.7765C57.5941 31.7765 61.7107 35.8779 61.7107 40.9372V47.8078C61.7107 52.8672 57.5941 56.9686 52.516 56.9686Z" fill="url(#paint4_linear_58_20)"/>
<path d="M32.9773 10.3059H41.0227V15.4588H32.9773V10.3059Z" fill="url(#paint5_linear_58_20)"/>
<path d="M32.69 56.6824H40.7353V61.8353H32.69V56.6824Z" fill="url(#paint6_linear_58_20)"/>
<path d="M52.085 24.9059C54.066 24.9059 56.0276 24.5171 57.8578 23.7618C59.688 23.0065 61.351 21.8995 62.7517 20.5039C64.1525 19.1083 65.2637 17.4514 66.0218 15.628C66.7798 13.8045 67.17 11.8502 67.17 9.87647H57.7236C57.7236 10.6142 57.5777 11.3447 57.2943 12.0263C57.011 12.7079 56.5956 13.3272 56.0721 13.8488C55.5485 14.3705 54.9269 14.7843 54.2428 15.0666C53.5587 15.3489 52.8255 15.4942 52.085 15.4942V24.9059Z" fill="url(#paint7_linear_58_20)"/>
<path d="M6.82997 63.1235C6.82997 61.1498 7.22016 59.1955 7.97825 57.372C8.73634 55.5486 9.8475 53.8917 11.2483 52.4961C12.649 51.1005 14.312 49.9935 16.1422 49.2382C17.9724 48.4829 19.934 48.0941 21.915 48.0941V57.5058C21.1745 57.5058 20.4413 57.6511 19.7572 57.9334C19.0731 58.2157 18.4515 58.6295 17.9279 59.1512C17.4044 59.6728 16.989 60.2921 16.7057 60.9737C16.4223 61.6553 16.2764 62.3858 16.2764 63.1235H6.82997Z" fill="url(#paint8_linear_58_20)"/>
<path d="M62.429 0L74 10.3059H50.858L62.429 0Z" fill="url(#paint9_linear_58_20)"/>
<path d="M11.571 73L0 62.6941H23.142L11.571 73Z" fill="url(#paint10_linear_58_20)"/>
<defs>
<linearGradient id="paint0_linear_58_20" x1="60.712" y1="3.19724e-06" x2="187.122" y2="29.4196" gradientUnits="userSpaceOnUse">
<stop stop-color="#63C5FE"/>
<stop offset="0.520833" stop-color="#5F69FB"/>
<stop offset="0.953125" stop-color="#63C5FE"/>
</linearGradient>
<linearGradient id="paint1_linear_58_20" x1="4.67492" y1="79.8706" x2="65.5672" y2="-10.5146" gradientUnits="userSpaceOnUse">
<stop stop-color="#63C3FE"/>
<stop offset="0.522393" stop-color="#5F69FB"/>
<stop offset="1" stop-color="#63C2FE"/>
</linearGradient>
<linearGradient id="paint2_linear_58_20" x1="4.67492" y1="79.8706" x2="65.5672" y2="-10.5146" gradientUnits="userSpaceOnUse">
<stop stop-color="#63C3FE"/>
<stop offset="0.522393" stop-color="#5F69FB"/>
<stop offset="1" stop-color="#63C2FE"/>
</linearGradient>
<linearGradient id="paint3_linear_58_20" x1="4.67492" y1="79.8706" x2="65.5672" y2="-10.5146" gradientUnits="userSpaceOnUse">
<stop stop-color="#63C3FE"/>
<stop offset="0.522393" stop-color="#5F69FB"/>
<stop offset="1" stop-color="#63C2FE"/>
</linearGradient>
<linearGradient id="paint4_linear_58_20" x1="4.67492" y1="79.8706" x2="65.5672" y2="-10.5146" gradientUnits="userSpaceOnUse">
<stop stop-color="#63C3FE"/>
<stop offset="0.522393" stop-color="#5F69FB"/>
<stop offset="1" stop-color="#63C2FE"/>
</linearGradient>
<linearGradient id="paint5_linear_58_20" x1="4.67492" y1="79.8706" x2="65.5672" y2="-10.5146" gradientUnits="userSpaceOnUse">
<stop stop-color="#63C3FE"/>
<stop offset="0.522393" stop-color="#5F69FB"/>
<stop offset="1" stop-color="#63C2FE"/>
</linearGradient>
<linearGradient id="paint6_linear_58_20" x1="4.67492" y1="79.8706" x2="65.5672" y2="-10.5146" gradientUnits="userSpaceOnUse">
<stop stop-color="#63C3FE"/>
<stop offset="0.522393" stop-color="#5F69FB"/>
<stop offset="1" stop-color="#63C2FE"/>
</linearGradient>
<linearGradient id="paint7_linear_58_20" x1="4.67492" y1="79.8706" x2="65.5672" y2="-10.5146" gradientUnits="userSpaceOnUse">
<stop stop-color="#63C3FE"/>
<stop offset="0.522393" stop-color="#5F69FB"/>
<stop offset="1" stop-color="#63C2FE"/>
</linearGradient>
<linearGradient id="paint8_linear_58_20" x1="4.67492" y1="79.8706" x2="65.5672" y2="-10.5146" gradientUnits="userSpaceOnUse">
<stop stop-color="#63C3FE"/>
<stop offset="0.522393" stop-color="#5F69FB"/>
<stop offset="1" stop-color="#63C2FE"/>
</linearGradient>
<linearGradient id="paint9_linear_58_20" x1="4.67492" y1="79.8706" x2="65.5672" y2="-10.5146" gradientUnits="userSpaceOnUse">
<stop stop-color="#63C3FE"/>
<stop offset="0.522393" stop-color="#5F69FB"/>
<stop offset="1" stop-color="#63C2FE"/>
</linearGradient>
<linearGradient id="paint10_linear_58_20" x1="4.67492" y1="79.8706" x2="65.5672" y2="-10.5146" gradientUnits="userSpaceOnUse">
<stop stop-color="#63C3FE"/>
<stop offset="0.522393" stop-color="#5F69FB"/>
<stop offset="1" stop-color="#63C2FE"/>
</linearGradient>
</defs>
</svg>
